<svg width="325" height="56" viewBox="0 0 325 56" fill="none" xmlns="http://www.w3.org/2000/svg">
<path d="M103.593 29.497C103.593 31.869 103.252 34.0305 102.569 35.9817C101.887 37.9329 100.92 39.5971 99.6683 40.9744C98.4169 42.3517 96.9003 43.4229 95.1177 44.1881C93.3736 44.9533 91.4395 45.3358 89.3156 45.3358C87.1916 45.3358 85.2576 44.9533 83.5135 44.1881C81.7694 43.4229 80.2711 42.3517 79.0197 40.9744C77.7683 39.5971 76.7823 37.9329 76.0618 35.9817C75.3792 34.0305 75.0379 31.869 75.0379 29.497C75.0379 27.1249 75.3792 24.9825 76.0618 23.0696C76.7823 21.1185 77.7683 19.4542 79.0197 18.0769C80.3087 16.6996 81.8263 15.6475 83.5704 14.9206C85.3145 14.1555 87.2302 13.7729 89.3156 13.7729C91.401 13.7729 93.3167 14.1555 95.0608 14.9206C96.8434 15.6475 98.36 16.6996 99.6114 18.0769C100.863 19.4542 101.83 21.1185 102.512 23.0696C103.233 24.9825 103.593 27.1249 103.593 29.497ZM96.5397 29.497C96.5397 26.5128 95.8947 24.16 94.6057 22.4384C93.3543 20.6785 91.5909 19.7985 89.3156 19.7985C87.0402 19.7985 85.2576 20.6785 83.9686 22.4384C82.7171 24.16 82.0914 26.5128 82.0914 29.497C82.0914 32.5193 82.7171 34.9105 83.9686 36.6704C85.2576 38.4302 87.0402 39.3102 89.3156 39.3102C91.5909 39.3102 93.3543 38.4302 94.6057 36.6704C95.8947 34.9105 96.5397 32.5193 96.5397 29.497ZM127.636 20.7741C127.067 20.5828 126.27 20.3916 125.246 20.2003C124.26 19.9707 123.103 19.8559 121.777 19.8559C121.018 19.8559 120.202 19.9325 119.331 20.0855C118.496 20.2385 117.909 20.3724 117.567 20.4872V44.5324H110.684V15.9536C112.011 15.4563 113.661 14.9972 115.633 14.5763C117.642 14.1172 119.861 13.8877 122.289 13.8877C122.744 13.8877 123.274 13.9259 123.881 14.0025C124.488 14.0407 125.094 14.1172 125.702 14.232C126.308 14.3085 126.896 14.4233 127.465 14.5763C128.034 14.6911 128.489 14.8059 128.83 14.9206L127.636 20.7741ZM140.51 26.2259C141.381 25.3077 142.31 24.3321 143.297 23.2992C144.282 22.228 145.249 21.1758 146.198 20.1429C147.146 19.0717 148.036 18.0578 148.871 17.1014C149.743 16.1066 150.482 15.2458 151.09 14.5189H159.224C157.328 16.6614 155.317 18.8804 153.194 21.1758C151.108 23.4713 149.003 25.7094 146.88 27.8901C148.018 28.8465 149.213 30.0134 150.464 31.3907C151.716 32.7298 152.928 34.1645 154.105 35.6948C155.28 37.2251 156.38 38.7555 157.404 40.2857C158.428 41.816 159.281 43.2316 159.964 44.5324H152C151.317 43.3464 150.521 42.103 149.611 40.8022C148.738 39.5015 147.791 38.239 146.767 37.0147C145.743 35.7904 144.7 34.6426 143.638 33.5714C142.576 32.4619 141.533 31.5247 140.51 30.7595V44.5324H133.627V1.14774L140.51 0V26.2259ZM164.615 6.59952L171.498 5.45177V14.5189H182.079V20.315H171.498V32.5385C171.498 34.9487 171.877 36.6704 172.636 37.7033C173.394 38.7363 174.684 39.2528 176.504 39.2528C177.755 39.2528 178.855 39.1188 179.803 38.8511C180.789 38.5833 181.567 38.3346 182.135 38.105L183.273 43.6142C182.477 43.9585 181.434 44.3028 180.145 44.6472C178.855 45.0297 177.338 45.221 175.594 45.221C173.47 45.221 171.687 44.9341 170.247 44.3602C168.843 43.7864 167.725 42.9638 166.891 41.8926C166.056 40.7831 165.469 39.4632 165.127 37.9329C164.786 36.3643 164.615 34.5853 164.615 32.5959V6.59952ZM186.582 29.6691C186.582 27.0293 186.962 24.7147 187.72 22.7253C188.516 20.7359 189.559 19.0907 190.848 17.79C192.138 16.4509 193.617 15.4563 195.285 14.8059C196.954 14.1172 198.661 13.7729 200.405 13.7729C204.5 13.7729 207.686 15.0546 209.961 17.6178C212.275 20.1811 213.431 24.007 213.431 29.0953C213.431 29.4778 213.413 29.9178 213.374 30.4152C213.374 30.8743 213.356 31.2951 213.317 31.6777H193.692C193.882 34.0879 194.716 35.9626 196.195 37.3016C197.713 38.6024 199.893 39.2528 202.737 39.2528C204.406 39.2528 205.922 39.0998 207.288 38.7937C208.691 38.4876 209.79 38.1624 210.587 37.8181L211.497 43.4994C211.118 43.6907 210.587 43.9011 209.904 44.1307C209.26 44.322 208.501 44.4942 207.629 44.6472C206.795 44.8385 205.885 44.9915 204.898 45.1063C203.913 45.221 202.908 45.2784 201.884 45.2784C199.267 45.2784 196.992 44.8959 195.058 44.1307C193.124 43.3273 191.531 42.2369 190.279 40.8596C189.028 39.4441 188.1 37.7989 187.492 35.9243C186.886 34.0114 186.582 31.9264 186.582 29.6691ZM206.548 26.5702C206.548 25.6138 206.416 24.7147 206.15 23.873C205.885 22.9931 205.487 22.247 204.955 21.6349C204.463 20.9845 203.837 20.4872 203.078 20.1429C202.358 19.7603 201.485 19.569 200.462 19.569C199.4 19.569 198.471 19.7794 197.674 20.2003C196.878 20.5828 196.195 21.0993 195.626 21.7497C195.096 22.4001 194.679 23.1462 194.375 23.9878C194.072 24.8295 193.863 25.6903 193.749 26.5702H206.548ZM220.728 15.4945C222.056 15.112 223.782 14.7485 225.905 14.4042C228.029 14.0598 230.38 13.8877 232.958 13.8877C235.386 13.8877 237.414 14.232 239.045 14.9206C240.676 15.5711 241.965 16.5083 242.913 17.7326C243.899 18.9186 244.582 20.3724 244.961 22.094C245.378 23.7774 245.586 25.6329 245.586 27.6606V44.5324H238.703V28.7509C238.703 27.1441 238.59 25.786 238.362 24.6765C238.173 23.5287 237.832 22.6105 237.338 21.9219C236.883 21.195 236.239 20.6785 235.404 20.3724C234.608 20.0281 233.623 19.8559 232.446 19.8559C231.575 19.8559 230.665 19.9133 229.716 20.0281C228.768 20.1429 228.066 20.2385 227.611 20.315V44.5324H220.728V15.4945ZM252.353 29.5544C252.353 27.3354 252.695 25.2695 253.377 23.3565C254.06 21.4054 255.027 19.722 256.278 18.3065C257.567 16.891 259.123 15.7815 260.943 14.978C262.763 14.1746 264.811 13.7729 267.086 13.7729C269.893 13.7729 272.547 14.2894 275.05 15.3224L273.571 21.0037C272.775 20.6594 271.864 20.3724 270.841 20.1429C269.854 19.9133 268.793 19.7985 267.655 19.7985C264.962 19.7985 262.914 20.6594 261.512 22.381C260.109 24.0644 259.407 26.4555 259.407 29.5544C259.407 32.5385 260.07 34.9105 261.398 36.6704C262.726 38.392 264.962 39.2528 268.11 39.2528C269.285 39.2528 270.442 39.138 271.58 38.9085C272.718 38.6789 273.704 38.392 274.538 38.0476L275.505 43.7864C274.746 44.1689 273.59 44.5132 272.035 44.8193C270.519 45.1254 268.944 45.2784 267.314 45.2784C264.773 45.2784 262.555 44.8959 260.658 44.1307C258.801 43.3273 257.245 42.2369 255.994 40.8596C254.78 39.4441 253.87 37.7799 253.264 35.8669C252.657 33.9158 252.353 31.8116 252.353 29.5544ZM305.623 14.5189C302.551 25.9198 298.986 36.2495 294.929 45.508C294.17 47.2296 293.393 48.7025 292.597 49.9268C291.801 51.1511 290.909 52.1649 289.923 52.9683C288.937 53.7717 287.837 54.3456 286.624 54.6899C285.41 55.0725 284.008 55.2638 282.415 55.2638C281.352 55.2638 280.291 55.149 279.229 54.9195C278.205 54.6899 277.427 54.4412 276.897 54.1734L278.149 48.6069C279.514 49.1425 280.86 49.4103 282.187 49.4103C283.969 49.4103 285.353 48.9704 286.34 48.0904C287.364 47.2487 288.255 45.9288 289.013 44.1307C286.852 39.9223 284.765 35.3313 282.756 30.3578C280.784 25.3843 279.02 20.1046 277.466 14.5189H284.804C285.183 16.1258 285.638 17.8665 286.169 19.7412C286.738 21.6158 287.344 23.5287 287.989 25.4799C288.633 27.3928 289.316 29.3056 290.037 31.2186C290.757 33.1315 291.478 34.9105 292.199 36.5556C293.412 33.1506 294.549 29.5352 295.612 25.7094C296.673 21.8453 297.64 18.1152 298.513 14.5189H305.623Z" fill="#164F89"/>
<path d="M316.668 16.7531L322.453 24.6523L316.668 32.3157" stroke="#FC866C" stroke-width="5" stroke-linecap="round" stroke-linejoin="round"/>
<path d="M3.84696 14.3203L3.84694 14.3203C1.72233 16.4362 1.61038 19.9741 3.59689 22.2225L21.4308 42.4067C23.4173 44.655 26.75 44.7624 28.8746 42.6464C30.9992 40.5305 31.1112 36.9926 29.1247 34.7443L11.2908 14.5601C9.30428 12.3118 5.97156 12.2044 3.84696 14.3203Z" fill="#164F89"/>
<path d="M36.1596 14.5162C34.1465 12.2921 30.8128 12.2251 28.7135 14.3665C26.6141 16.508 26.5443 20.047 28.5573 22.2711L46.6015 42.207C48.6146 44.4311 51.9484 44.4981 54.0477 42.3566C56.147 40.2152 56.2169 36.6762 54.2038 34.452L36.1596 14.5162Z" fill="#164F89"/>
<path d="M61.7797 24.7678C60.2729 26.6866 56.3546 26.6278 54.7766 24.7678L50.8749 19.9219C48.7555 17.4238 50.4727 13.5644 53.7313 13.5022L62.0002 13.3444C65.2588 13.2823 67.1202 17.0734 65.0964 19.6506L61.7797 24.7678Z" fill="#164F89"/>
</svg>
